<mxfile host="65bd71144e">
    <diagram id="Nii93QJuHP6GY2YIdgYS" name="Page-1">
        <mxGraphModel dx="1326" dy="1034" grid="1" gridSize="10" guides="1" tooltips="1" connect="1" arrows="1" fold="1" page="1" pageScale="1" pageWidth="850" pageHeight="1100" math="0" shadow="0">
            <root>
                <mxCell id="0"/>
                <mxCell id="1" parent="0"/>
                <mxCell id="10" value="Voter" style="text;html=1;strokeColor=none;fillColor=none;align=center;verticalAlign=middle;whiteSpace=wrap;rounded=0;" parent="1" vertex="1">
                    <mxGeometry x="40" y="40" width="60" height="30" as="geometry"/>
                </mxCell>
                <mxCell id="35" value="vote1" style="edgeStyle=none;html=1;exitX=1;exitY=0.5;exitDx=0;exitDy=0;entryX=0;entryY=0.5;entryDx=0;entryDy=0;" parent="1" source="33" target="34" edge="1">
                    <mxGeometry relative="1" as="geometry"/>
                </mxCell>
                <mxCell id="37" value="vote2" style="edgeStyle=none;html=1;exitX=1;exitY=0.5;exitDx=0;exitDy=0;entryX=0;entryY=0.5;entryDx=0;entryDy=0;" parent="1" source="33" target="36" edge="1">
                    <mxGeometry relative="1" as="geometry"/>
                </mxCell>
                <mxCell id="33" value="q0" style="ellipse;shape=doubleEllipse;html=1;dashed=0;whitespace=wrap;aspect=fixed;" parent="1" vertex="1">
                    <mxGeometry x="40" y="210" width="100" height="100" as="geometry"/>
                </mxCell>
                <mxCell id="39" value="gv_1_Voter1&lt;br&gt;gv_2_Voter1" style="edgeStyle=none;html=1;exitX=1;exitY=0.5;exitDx=0;exitDy=0;entryX=0;entryY=0.5;entryDx=0;entryDy=0;" parent="1" source="34" target="38" edge="1">
                    <mxGeometry relative="1" as="geometry"/>
                </mxCell>
                <mxCell id="45" value="ng_Voter1" style="edgeStyle=none;html=1;exitX=1;exitY=0.5;exitDx=0;exitDy=0;entryX=0;entryY=0.5;entryDx=0;entryDy=0;" parent="1" source="34" target="42" edge="1">
                    <mxGeometry relative="1" as="geometry"/>
                </mxCell>
                <mxCell id="34" value="q1&lt;br&gt;Voter1_vote==1" style="shape=ellipse;html=1;dashed=0;whitespace=wrap;aspect=fixed;perimeter=ellipsePerimeter;" parent="1" vertex="1">
                    <mxGeometry x="200" y="90" width="100" height="100" as="geometry"/>
                </mxCell>
                <mxCell id="41" value="gv_1_Voter1&lt;br&gt;gv_2_Voter1" style="edgeStyle=none;html=1;exitX=1;exitY=0.5;exitDx=0;exitDy=0;entryX=0;entryY=0.5;entryDx=0;entryDy=0;" parent="1" source="36" target="40" edge="1">
                    <mxGeometry relative="1" as="geometry"/>
                </mxCell>
                <mxCell id="44" value="ng_Voter1" style="edgeStyle=none;html=1;exitX=1;exitY=0.5;exitDx=0;exitDy=0;entryX=0;entryY=0.5;entryDx=0;entryDy=0;" parent="1" source="36" target="43" edge="1">
                    <mxGeometry relative="1" as="geometry"/>
                </mxCell>
                <mxCell id="36" value="q1&lt;br&gt;Voter1_vote==2" style="shape=ellipse;html=1;dashed=0;whitespace=wrap;aspect=fixed;perimeter=ellipsePerimeter;" parent="1" vertex="1">
                    <mxGeometry x="200" y="320" width="100" height="100" as="geometry"/>
                </mxCell>
                <mxCell id="52" value="pun_Voter1&lt;br&gt;npun_Voter1" style="edgeStyle=none;html=1;exitX=1;exitY=0.5;exitDx=0;exitDy=0;entryX=0;entryY=0.5;entryDx=0;entryDy=0;" parent="1" source="38" target="51" edge="1">
                    <mxGeometry relative="1" as="geometry">
                        <Array as="points">
                            <mxPoint x="550" y="90"/>
                        </Array>
                    </mxGeometry>
                </mxCell>
                <mxCell id="38" value="q2&lt;br&gt;Voter1_vote==1" style="shape=ellipse;html=1;dashed=0;whitespace=wrap;aspect=fixed;perimeter=ellipsePerimeter;" parent="1" vertex="1">
                    <mxGeometry x="400" y="40" width="100" height="100" as="geometry"/>
                </mxCell>
                <mxCell id="47" value="pun_Voter1&lt;br&gt;npun_Voter1" style="edgeStyle=none;html=1;exitX=1;exitY=0.5;exitDx=0;exitDy=0;entryX=0;entryY=0.5;entryDx=0;entryDy=0;" parent="1" source="40" target="46" edge="1">
                    <mxGeometry relative="1" as="geometry"/>
                </mxCell>
                <mxCell id="40" value="q2&lt;br&gt;Voter1_vote==2" style="shape=ellipse;html=1;dashed=0;whitespace=wrap;aspect=fixed;perimeter=ellipsePerimeter;" parent="1" vertex="1">
                    <mxGeometry x="400" y="380" width="100" height="100" as="geometry"/>
                </mxCell>
                <mxCell id="53" value="pun_Voter1&lt;br&gt;npun_Voter1" style="edgeStyle=none;html=1;exitX=1;exitY=0.5;exitDx=0;exitDy=0;entryX=0;entryY=0.5;entryDx=0;entryDy=0;" parent="1" source="42" target="50" edge="1">
                    <mxGeometry relative="1" as="geometry"/>
                </mxCell>
                <mxCell id="42" value="q2&lt;br&gt;Voter1_vote==1" style="shape=ellipse;html=1;dashed=0;whitespace=wrap;aspect=fixed;perimeter=ellipsePerimeter;" parent="1" vertex="1">
                    <mxGeometry x="400" y="150" width="100" height="100" as="geometry"/>
                </mxCell>
                <mxCell id="54" value="pun_Voter1&lt;br&gt;npun_Voter1" style="edgeStyle=none;html=1;exitX=1;exitY=0.5;exitDx=0;exitDy=0;entryX=0;entryY=0.5;entryDx=0;entryDy=0;" parent="1" source="43" target="49" edge="1">
                    <mxGeometry relative="1" as="geometry"/>
                </mxCell>
                <mxCell id="43" value="q2&lt;br&gt;Voter1_vote==2" style="shape=ellipse;html=1;dashed=0;whitespace=wrap;aspect=fixed;perimeter=ellipsePerimeter;" parent="1" vertex="1">
                    <mxGeometry x="400" y="270" width="100" height="100" as="geometry"/>
                </mxCell>
                <mxCell id="46" value="q3&lt;br&gt;Voter1_vote==2" style="shape=ellipse;html=1;dashed=0;whitespace=wrap;aspect=fixed;perimeter=ellipsePerimeter;" parent="1" vertex="1">
                    <mxGeometry x="600" y="380" width="100" height="100" as="geometry"/>
                </mxCell>
                <mxCell id="49" value="q3&lt;br&gt;Voter1_vote==2" style="shape=ellipse;html=1;dashed=0;whitespace=wrap;aspect=fixed;perimeter=ellipsePerimeter;" parent="1" vertex="1">
                    <mxGeometry x="600" y="270" width="100" height="100" as="geometry"/>
                </mxCell>
                <mxCell id="50" value="q3&lt;br&gt;Voter1_vote==1" style="shape=ellipse;html=1;dashed=0;whitespace=wrap;aspect=fixed;perimeter=ellipsePerimeter;" parent="1" vertex="1">
                    <mxGeometry x="600" y="150" width="100" height="100" as="geometry"/>
                </mxCell>
                <mxCell id="51" value="q3&lt;br&gt;Voter1_vote==1" style="shape=ellipse;html=1;dashed=0;whitespace=wrap;aspect=fixed;perimeter=ellipsePerimeter;" parent="1" vertex="1">
                    <mxGeometry x="600" y="40" width="100" height="100" as="geometry"/>
                </mxCell>
                <mxCell id="93" value="Coercer" style="text;html=1;strokeColor=none;fillColor=none;align=center;verticalAlign=middle;whiteSpace=wrap;rounded=0;" parent="1" vertex="1">
                    <mxGeometry x="160" y="520" width="60" height="30" as="geometry"/>
                </mxCell>
                <mxCell id="99" value="gv_1_Voter1" style="edgeStyle=none;html=1;exitX=0;exitY=1;exitDx=0;exitDy=0;entryX=0.5;entryY=0;entryDx=0;entryDy=0;" parent="1" source="95" target="102" edge="1">
                    <mxGeometry relative="1" as="geometry">
                        <mxPoint x="210" y="759.9999999999998" as="targetPoint"/>
                    </mxGeometry>
                </mxCell>
                <mxCell id="100" value="gv_2_Voter1" style="edgeStyle=none;html=1;exitX=0.5;exitY=1;exitDx=0;exitDy=0;entryX=0.5;entryY=0;entryDx=0;entryDy=0;" parent="1" source="95" target="104" edge="1">
                    <mxGeometry relative="1" as="geometry">
                        <mxPoint x="340" y="760" as="targetPoint"/>
                    </mxGeometry>
                </mxCell>
                <mxCell id="101" value="ng_Voter1" style="edgeStyle=none;html=1;exitX=1;exitY=1;exitDx=0;exitDy=0;entryX=0.5;entryY=0;entryDx=0;entryDy=0;" parent="1" source="95" target="103" edge="1">
                    <mxGeometry relative="1" as="geometry">
                        <mxPoint x="470" y="760" as="targetPoint"/>
                    </mxGeometry>
                </mxCell>
                <mxCell id="95" value="q0" style="ellipse;shape=doubleEllipse;html=1;dashed=0;whitespace=wrap;aspect=fixed;" parent="1" vertex="1">
                    <mxGeometry x="260" y="550" width="160" height="160" as="geometry"/>
                </mxCell>
                <mxCell id="102" value="q1&lt;br&gt;Coercer1_Voter1_vote:=1&lt;br&gt;Coercer1_Voter1_gv:=1" style="shape=ellipse;html=1;dashed=0;whitespace=wrap;aspect=fixed;perimeter=ellipsePerimeter;" parent="1" vertex="1">
                    <mxGeometry x="80" y="760" width="160" height="160" as="geometry"/>
                </mxCell>
                <mxCell id="103" value="q1&lt;br&gt;Coercer1_Voter1_gv:=2" style="shape=ellipse;html=1;dashed=0;whitespace=wrap;aspect=fixed;perimeter=ellipsePerimeter;" parent="1" vertex="1">
                    <mxGeometry x="440" y="760" width="160" height="160" as="geometry"/>
                </mxCell>
                <mxCell id="104" value="q1&lt;br&gt;Coercer1_Voter1_vote:=2&lt;br&gt;Coercer1_Voter1_gv:=1" style="shape=ellipse;html=1;dashed=0;whitespace=wrap;aspect=fixed;perimeter=ellipsePerimeter;" parent="1" vertex="1">
                    <mxGeometry x="260" y="760" width="160" height="160" as="geometry"/>
                </mxCell>
                <mxCell id="107" value="gv_1_Voter2" style="edgeStyle=none;html=1;exitX=0;exitY=1;exitDx=0;exitDy=0;" parent="1" source="102" edge="1">
                    <mxGeometry relative="1" as="geometry">
                        <mxPoint x="293.4314575050762" y="696.5685424949236" as="sourcePoint"/>
                        <mxPoint x="103" y="1000" as="targetPoint"/>
                    </mxGeometry>
                </mxCell>
                <mxCell id="108" value="gv_2_Voter2" style="edgeStyle=none;html=1;exitX=0.5;exitY=1;exitDx=0;exitDy=0;" parent="1" source="102" edge="1">
                    <mxGeometry relative="1" as="geometry">
                        <mxPoint x="349.9999999999998" y="720.0000000000002" as="sourcePoint"/>
                        <mxPoint x="160" y="1000" as="targetPoint"/>
                    </mxGeometry>
                </mxCell>
                <mxCell id="109" value="ng_Voter2" style="edgeStyle=none;html=1;exitX=1;exitY=1;exitDx=0;exitDy=0;" parent="1" source="102" edge="1">
                    <mxGeometry relative="1" as="geometry">
                        <mxPoint x="406.5685424949236" y="696.5685424949238" as="sourcePoint"/>
                        <mxPoint x="217" y="1000" as="targetPoint"/>
                    </mxGeometry>
                </mxCell>
                <mxCell id="110" value="gv_1_Voter2" style="edgeStyle=none;html=1;exitX=0;exitY=1;exitDx=0;exitDy=0;" parent="1" source="104" edge="1">
                    <mxGeometry relative="1" as="geometry">
                        <mxPoint x="113.4314575050762" y="906.5685424949236" as="sourcePoint"/>
                        <mxPoint x="283" y="1000" as="targetPoint"/>
                    </mxGeometry>
                </mxCell>
                <mxCell id="111" value="gv_2_Voter2" style="edgeStyle=none;html=1;exitX=0.5;exitY=1;exitDx=0;exitDy=0;" parent="1" source="104" edge="1">
                    <mxGeometry relative="1" as="geometry">
                        <mxPoint x="169.99999999999977" y="929.9999999999998" as="sourcePoint"/>
                        <mxPoint x="340" y="1000" as="targetPoint"/>
                    </mxGeometry>
                </mxCell>
                <mxCell id="112" value="ng_Voter2" style="edgeStyle=none;html=1;exitX=1;exitY=1;exitDx=0;exitDy=0;" parent="1" source="104" edge="1">
                    <mxGeometry relative="1" as="geometry">
                        <mxPoint x="226.56854249492358" y="906.5685424949236" as="sourcePoint"/>
                        <mxPoint x="397" y="1000" as="targetPoint"/>
                    </mxGeometry>
                </mxCell>
                <mxCell id="113" value="gv_1_Voter2" style="edgeStyle=none;html=1;exitX=0;exitY=1;exitDx=0;exitDy=0;" parent="1" source="103" edge="1">
                    <mxGeometry relative="1" as="geometry">
                        <mxPoint x="123.4314575050762" y="916.5685424949236" as="sourcePoint"/>
                        <mxPoint x="463" y="1000" as="targetPoint"/>
                    </mxGeometry>
                </mxCell>
                <mxCell id="114" value="gv_2_Voter2" style="edgeStyle=none;html=1;exitX=0.5;exitY=1;exitDx=0;exitDy=0;" parent="1" source="103" edge="1">
                    <mxGeometry relative="1" as="geometry">
                        <mxPoint x="179.99999999999977" y="939.9999999999998" as="sourcePoint"/>
                        <mxPoint x="520" y="1000" as="targetPoint"/>
                    </mxGeometry>
                </mxCell>
                <mxCell id="115" value="ng_Voter2" style="edgeStyle=none;html=1;exitX=1;exitY=1;exitDx=0;exitDy=0;" parent="1" source="103" edge="1">
                    <mxGeometry relative="1" as="geometry">
                        <mxPoint x="236.56854249492358" y="916.5685424949236" as="sourcePoint"/>
                        <mxPoint x="577" y="1000" as="targetPoint"/>
                    </mxGeometry>
                </mxCell>
                <mxCell id="116" value="..." style="text;html=1;strokeColor=none;fillColor=none;align=center;verticalAlign=middle;whiteSpace=wrap;rounded=0;" parent="1" vertex="1">
                    <mxGeometry x="310" y="1010" width="60" height="30" as="geometry"/>
                </mxCell>
                <mxCell id="117" value="..." style="text;html=1;strokeColor=none;fillColor=none;align=center;verticalAlign=middle;whiteSpace=wrap;rounded=0;" parent="1" vertex="1">
                    <mxGeometry x="130" y="1010" width="60" height="30" as="geometry"/>
                </mxCell>
                <mxCell id="118" value="..." style="text;html=1;strokeColor=none;fillColor=none;align=center;verticalAlign=middle;whiteSpace=wrap;rounded=0;" parent="1" vertex="1">
                    <mxGeometry x="490" y="1010" width="60" height="30" as="geometry"/>
                </mxCell>
                <mxCell id="125" value="pun_Voter1" style="edgeStyle=none;html=1;exitX=0;exitY=1;exitDx=0;exitDy=0;entryX=0.5;entryY=0;entryDx=0;entryDy=0;" parent="1" source="120" target="122" edge="1">
                    <mxGeometry relative="1" as="geometry"/>
                </mxCell>
                <mxCell id="126" value="npun_Voter1" style="edgeStyle=none;html=1;exitX=1;exitY=1;exitDx=0;exitDy=0;entryX=0.5;entryY=0;entryDx=0;entryDy=0;" parent="1" source="120" target="123" edge="1">
                    <mxGeometry relative="1" as="geometry"/>
                </mxCell>
                <mxCell id="120" value="qn&lt;br&gt;???" style="shape=ellipse;html=1;dashed=0;whitespace=wrap;aspect=fixed;perimeter=ellipsePerimeter;" parent="1" vertex="1">
                    <mxGeometry x="260" y="1100" width="160" height="160" as="geometry"/>
                </mxCell>
                <mxCell id="121" value="" style="edgeStyle=none;html=1;entryX=0.5;entryY=0;entryDx=0;entryDy=0;exitX=0.5;exitY=1;exitDx=0;exitDy=0;" parent="1" source="116" target="120" edge="1">
                    <mxGeometry relative="1" as="geometry">
                        <mxPoint x="360" y="1060" as="sourcePoint"/>
                        <mxPoint x="350.0000000000002" y="1010.0000000000002" as="targetPoint"/>
                    </mxGeometry>
                </mxCell>
                <mxCell id="122" value="qn+1&lt;br&gt;???&lt;br&gt;Coercer1_pun1:=1" style="shape=ellipse;html=1;dashed=0;whitespace=wrap;aspect=fixed;perimeter=ellipsePerimeter;" parent="1" vertex="1">
                    <mxGeometry x="120" y="1280" width="160" height="160" as="geometry"/>
                </mxCell>
                <mxCell id="123" value="qn+1&lt;br&gt;???&lt;br&gt;Coercer1_npun1:=1" style="shape=ellipse;html=1;dashed=0;whitespace=wrap;aspect=fixed;perimeter=ellipsePerimeter;" parent="1" vertex="1">
                    <mxGeometry x="400" y="1280" width="160" height="160" as="geometry"/>
                </mxCell>
                <mxCell id="127" value="pun_Voter2" style="edgeStyle=none;html=1;exitX=0;exitY=1;exitDx=0;exitDy=0;" parent="1" source="122" edge="1">
                    <mxGeometry relative="1" as="geometry">
                        <mxPoint x="231.7114575050762" y="1499.998542494924" as="sourcePoint"/>
                        <mxPoint x="143" y="1520" as="targetPoint"/>
                    </mxGeometry>
                </mxCell>
                <mxCell id="128" value="npun_Voter2" style="edgeStyle=none;html=1;exitX=1;exitY=1;exitDx=0;exitDy=0;" parent="1" source="122" edge="1">
                    <mxGeometry relative="1" as="geometry">
                        <mxPoint x="259.9985424949236" y="1529.9985424949239" as="sourcePoint"/>
                        <mxPoint x="257" y="1520" as="targetPoint"/>
                    </mxGeometry>
                </mxCell>
                <mxCell id="129" value="pun_Voter2" style="edgeStyle=none;html=1;exitX=0;exitY=1;exitDx=0;exitDy=0;" parent="1" source="123" edge="1">
                    <mxGeometry relative="1" as="geometry">
                        <mxPoint x="423.02145750507617" y="1439.9985424949243" as="sourcePoint"/>
                        <mxPoint x="423" y="1520" as="targetPoint"/>
                    </mxGeometry>
                </mxCell>
                <mxCell id="130" value="npun_Voter2" style="edgeStyle=none;html=1;exitX=1;exitY=1;exitDx=0;exitDy=0;" parent="1" source="123" edge="1">
                    <mxGeometry relative="1" as="geometry">
                        <mxPoint x="536.1585424949235" y="1439.9985424949239" as="sourcePoint"/>
                        <mxPoint x="537" y="1520" as="targetPoint"/>
                    </mxGeometry>
                </mxCell>
                <mxCell id="131" value="..." style="text;html=1;strokeColor=none;fillColor=none;align=center;verticalAlign=middle;whiteSpace=wrap;rounded=0;" parent="1" vertex="1">
                    <mxGeometry x="170" y="1520" width="60" height="30" as="geometry"/>
                </mxCell>
                <mxCell id="132" value="..." style="text;html=1;strokeColor=none;fillColor=none;align=center;verticalAlign=middle;whiteSpace=wrap;rounded=0;" parent="1" vertex="1">
                    <mxGeometry x="450" y="1520" width="60" height="30" as="geometry"/>
                </mxCell>
                <mxCell id="135" value="vote`" style="edgeStyle=none;html=1;exitX=0;exitY=1;exitDx=0;exitDy=0;entryX=1;entryY=0;entryDx=0;entryDy=0;" edge="1" parent="1" source="133" target="134">
                    <mxGeometry relative="1" as="geometry"/>
                </mxCell>
                <mxCell id="137" value="vote2" style="edgeStyle=none;html=1;exitX=1;exitY=1;exitDx=0;exitDy=0;" edge="1" parent="1" source="133" target="136">
                    <mxGeometry relative="1" as="geometry"/>
                </mxCell>
                <mxCell id="133" value="&lt;div&gt;[0]&lt;br&gt;Voter1_vote = 0&lt;/div&gt;&lt;div&gt;Coercer1_Voter1_gv = 0&lt;/div&gt;&lt;div&gt;Coercer1_Voter1_vote = 0&lt;/div&gt;&lt;div&gt;Coercer1_npun1 = 0&lt;/div&gt;&lt;div&gt;&lt;span style=&quot;background-color: initial;&quot;&gt;Coercer1_pun1 = 0&lt;/span&gt;&lt;/div&gt;" style="ellipse;shape=doubleEllipse;html=1;dashed=0;whitespace=wrap;aspect=fixed;" vertex="1" parent="1">
                    <mxGeometry x="1270" y="80" width="160" height="160" as="geometry"/>
                </mxCell>
                <mxCell id="144" value="gv_1_Voter1" style="edgeStyle=none;html=1;exitX=0;exitY=1;exitDx=0;exitDy=0;entryX=0.5;entryY=0;entryDx=0;entryDy=0;" edge="1" parent="1" source="134" target="138">
                    <mxGeometry relative="1" as="geometry"/>
                </mxCell>
                <mxCell id="145" value="gv_2_Voter1" style="edgeStyle=none;html=1;exitX=0.5;exitY=1;exitDx=0;exitDy=0;entryX=0.5;entryY=0;entryDx=0;entryDy=0;" edge="1" parent="1" source="134" target="139">
                    <mxGeometry relative="1" as="geometry"/>
                </mxCell>
                <mxCell id="146" value="ng_Voter1" style="edgeStyle=none;html=1;exitX=1;exitY=1;exitDx=0;exitDy=0;entryX=0.5;entryY=0;entryDx=0;entryDy=0;" edge="1" parent="1" source="134" target="140">
                    <mxGeometry relative="1" as="geometry"/>
                </mxCell>
                <mxCell id="134" value="&lt;div&gt;[1]&lt;/div&gt;&lt;div&gt;Voter1_vote = 1&lt;/div&gt;&lt;div&gt;Coercer1_Voter1_gv = 0&lt;/div&gt;&lt;div&gt;Coercer1_Voter1_vote = 0&lt;/div&gt;&lt;div&gt;Coercer1_npun1 = 0&lt;/div&gt;&lt;div&gt;&lt;span style=&quot;background-color: initial;&quot;&gt;Coercer1_pun1 = 0&lt;/span&gt;&lt;/div&gt;" style="shape=ellipse;html=1;dashed=0;whitespace=wrap;aspect=fixed;perimeter=ellipsePerimeter;" vertex="1" parent="1">
                    <mxGeometry x="1030" y="240" width="160" height="160" as="geometry"/>
                </mxCell>
                <mxCell id="147" value="gv_1_Voter1" style="edgeStyle=none;html=1;exitX=0;exitY=1;exitDx=0;exitDy=0;entryX=0.5;entryY=0;entryDx=0;entryDy=0;" edge="1" parent="1" source="136" target="141">
                    <mxGeometry relative="1" as="geometry"/>
                </mxCell>
                <mxCell id="148" value="gv_2_Voter1" style="edgeStyle=none;html=1;exitX=0.5;exitY=1;exitDx=0;exitDy=0;" edge="1" parent="1" source="136" target="142">
                    <mxGeometry relative="1" as="geometry"/>
                </mxCell>
                <mxCell id="149" value="ng_Voter1" style="edgeStyle=none;html=1;exitX=1;exitY=1;exitDx=0;exitDy=0;entryX=0.5;entryY=0;entryDx=0;entryDy=0;" edge="1" parent="1" source="136" target="143">
                    <mxGeometry relative="1" as="geometry"/>
                </mxCell>
                <mxCell id="136" value="&lt;div&gt;[2]&lt;/div&gt;&lt;div&gt;Voter1_vote = 2&lt;/div&gt;&lt;div&gt;Coercer1_Voter1_gv = 0&lt;/div&gt;&lt;div&gt;Coercer1_Voter1_vote = 0&lt;/div&gt;&lt;div&gt;Coercer1_npun1 = 0&lt;/div&gt;&lt;div&gt;&lt;span style=&quot;background-color: initial;&quot;&gt;Coercer1_pun1 = 0&lt;/span&gt;&lt;/div&gt;" style="shape=ellipse;html=1;dashed=0;whitespace=wrap;aspect=fixed;perimeter=ellipsePerimeter;" vertex="1" parent="1">
                    <mxGeometry x="1510" y="240" width="160" height="160" as="geometry"/>
                </mxCell>
                <mxCell id="150" value="pun_Voter1" style="edgeStyle=none;html=1;exitX=0;exitY=1;exitDx=0;exitDy=0;entryX=0.5;entryY=0;entryDx=0;entryDy=0;" edge="1" parent="1" source="138" target="164">
                    <mxGeometry relative="1" as="geometry">
                        <mxPoint x="893" y="640" as="targetPoint"/>
                        <mxPoint x="900" y="570" as="sourcePoint"/>
                    </mxGeometry>
                </mxCell>
                <mxCell id="151" value="npun_Voter1" style="edgeStyle=none;html=1;exitX=1;exitY=1;exitDx=0;exitDy=0;entryX=0.5;entryY=0;entryDx=0;entryDy=0;" edge="1" parent="1" source="138" target="165">
                    <mxGeometry relative="1" as="geometry">
                        <mxPoint x="1006.5294117647059" y="639.9999999999995" as="targetPoint"/>
                    </mxGeometry>
                </mxCell>
                <mxCell id="138" value="&lt;div&gt;[3]&lt;/div&gt;&lt;div&gt;Voter1_vote = 1&lt;/div&gt;&lt;div&gt;Coercer1_Voter1_gv = 1&lt;/div&gt;&lt;div&gt;Coercer1_Voter1_vote = 1&lt;/div&gt;&lt;div&gt;Coercer1_npun1 = 0&lt;/div&gt;&lt;div&gt;&lt;span style=&quot;background-color: initial;&quot;&gt;Coercer1_pun1 = 0&lt;/span&gt;&lt;/div&gt;" style="shape=ellipse;html=1;dashed=0;whitespace=wrap;aspect=fixed;perimeter=ellipsePerimeter;" vertex="1" parent="1">
                    <mxGeometry x="870" y="440" width="160" height="160" as="geometry"/>
                </mxCell>
                <mxCell id="152" value="npun_Voter1" style="edgeStyle=none;html=1;exitX=0;exitY=1;exitDx=0;exitDy=0;entryX=0.5;entryY=0;entryDx=0;entryDy=0;" edge="1" parent="1" source="139" target="168">
                    <mxGeometry relative="1" as="geometry">
                        <mxPoint x="1090" y="680" as="targetPoint"/>
                    </mxGeometry>
                </mxCell>
                <mxCell id="153" value="pun_Voter1" style="edgeStyle=none;html=1;exitX=1;exitY=1;exitDx=0;exitDy=0;entryX=0.5;entryY=0;entryDx=0;entryDy=0;" edge="1" parent="1" source="139" target="169">
                    <mxGeometry relative="1" as="geometry">
                        <mxPoint x="1170" y="840" as="targetPoint"/>
                    </mxGeometry>
                </mxCell>
                <mxCell id="139" value="&lt;div&gt;[4]&lt;/div&gt;&lt;div&gt;Voter1_vote = 1&lt;/div&gt;&lt;div&gt;Coercer1_Voter1_gv = 1&lt;/div&gt;&lt;div&gt;Coercer1_Voter1_vote = 2&lt;/div&gt;&lt;div&gt;Coercer1_npun1 = 0&lt;/div&gt;&lt;div&gt;&lt;span style=&quot;background-color: initial;&quot;&gt;Coercer1_pun1 = 0&lt;/span&gt;&lt;/div&gt;" style="shape=ellipse;html=1;dashed=0;whitespace=wrap;aspect=fixed;perimeter=ellipsePerimeter;" vertex="1" parent="1">
                    <mxGeometry x="1030" y="440" width="160" height="160" as="geometry"/>
                </mxCell>
                <mxCell id="154" value="npun_Voter1" style="edgeStyle=none;html=1;exitX=0;exitY=1;exitDx=0;exitDy=0;entryX=0.5;entryY=0;entryDx=0;entryDy=0;" edge="1" parent="1" source="140" target="170">
                    <mxGeometry relative="1" as="geometry">
                        <mxPoint x="1213.5882352941178" y="639.9999999999995" as="targetPoint"/>
                    </mxGeometry>
                </mxCell>
                <mxCell id="155" value="pun_Voter1" style="edgeStyle=none;html=1;exitX=1;exitY=1;exitDx=0;exitDy=0;entryX=0.5;entryY=0;entryDx=0;entryDy=0;" edge="1" parent="1" source="140" target="171">
                    <mxGeometry relative="1" as="geometry">
                        <mxPoint x="1326.5294117647059" y="639.9999999999995" as="targetPoint"/>
                    </mxGeometry>
                </mxCell>
                <mxCell id="140" value="&lt;div&gt;[5]&lt;/div&gt;&lt;div&gt;Voter1_vote = 1&lt;/div&gt;&lt;div&gt;Coercer1_Voter1_gv = 2&lt;/div&gt;&lt;div&gt;Coercer1_Voter1_vote = 0&lt;/div&gt;&lt;div&gt;Coercer1_npun1 = 0&lt;/div&gt;&lt;div&gt;&lt;span style=&quot;background-color: initial;&quot;&gt;Coercer1_pun1 = 0&lt;/span&gt;&lt;/div&gt;" style="shape=ellipse;html=1;dashed=0;whitespace=wrap;aspect=fixed;perimeter=ellipsePerimeter;" vertex="1" parent="1">
                    <mxGeometry x="1190" y="440" width="160" height="160" as="geometry"/>
                </mxCell>
                <mxCell id="156" value="npun_Voter1" style="edgeStyle=none;html=1;exitX=0;exitY=1;exitDx=0;exitDy=0;entryX=0.5;entryY=0;entryDx=0;entryDy=0;" edge="1" parent="1" source="141" target="172">
                    <mxGeometry relative="1" as="geometry">
                        <mxPoint x="1373.5882352941178" y="639.9999999999995" as="targetPoint"/>
                    </mxGeometry>
                </mxCell>
                <mxCell id="157" value="pun_Voter1" style="edgeStyle=none;html=1;exitX=1;exitY=1;exitDx=0;exitDy=0;entryX=0.5;entryY=0;entryDx=0;entryDy=0;" edge="1" parent="1" source="141" target="173">
                    <mxGeometry relative="1" as="geometry">
                        <mxPoint x="1486.5294117647059" y="639.9999999999995" as="targetPoint"/>
                    </mxGeometry>
                </mxCell>
                <mxCell id="141" value="&lt;div&gt;[6]&lt;/div&gt;&lt;div&gt;Voter1_vote = 2&lt;/div&gt;&lt;div&gt;Coercer1_Voter1_gv = 1&lt;/div&gt;&lt;div&gt;Coercer1_Voter1_vote = 1&lt;/div&gt;&lt;div&gt;Coercer1_npun1 = 0&lt;/div&gt;&lt;div&gt;&lt;span style=&quot;background-color: initial;&quot;&gt;Coercer1_pun1 = 0&lt;/span&gt;&lt;/div&gt;" style="shape=ellipse;html=1;dashed=0;whitespace=wrap;aspect=fixed;perimeter=ellipsePerimeter;" vertex="1" parent="1">
                    <mxGeometry x="1350" y="440" width="160" height="160" as="geometry"/>
                </mxCell>
                <mxCell id="158" value="npun_Voter1" style="edgeStyle=none;html=1;exitX=0;exitY=1;exitDx=0;exitDy=0;entryX=0.5;entryY=0;entryDx=0;entryDy=0;" edge="1" parent="1" source="142" target="176">
                    <mxGeometry relative="1" as="geometry">
                        <mxPoint x="1533.5882352941178" y="639.9999999999995" as="targetPoint"/>
                    </mxGeometry>
                </mxCell>
                <mxCell id="161" value="pun_Voter1" style="edgeStyle=none;html=1;exitX=1;exitY=1;exitDx=0;exitDy=0;entryX=0.5;entryY=0;entryDx=0;entryDy=0;" edge="1" parent="1" source="142" target="177">
                    <mxGeometry relative="1" as="geometry">
                        <mxPoint x="1646.5294117647059" y="639.9999999999995" as="targetPoint"/>
                    </mxGeometry>
                </mxCell>
                <mxCell id="142" value="&lt;div&gt;[7]&lt;/div&gt;&lt;div&gt;Voter1_vote = 2&lt;/div&gt;&lt;div&gt;Coercer1_Voter1_gv = 1&lt;/div&gt;&lt;div&gt;Coercer1_Voter1_vote = 2&lt;/div&gt;&lt;div&gt;Coercer1_npun1 = 0&lt;/div&gt;&lt;div&gt;&lt;span style=&quot;background-color: initial;&quot;&gt;Coercer1_pun1 = 0&lt;/span&gt;&lt;/div&gt;" style="shape=ellipse;html=1;dashed=0;whitespace=wrap;aspect=fixed;perimeter=ellipsePerimeter;" vertex="1" parent="1">
                    <mxGeometry x="1510" y="440" width="160" height="160" as="geometry"/>
                </mxCell>
                <mxCell id="159" value="npun_Voter1" style="edgeStyle=none;html=1;exitX=0;exitY=1;exitDx=0;exitDy=0;entryX=0.5;entryY=0;entryDx=0;entryDy=0;" edge="1" parent="1" source="143" target="178">
                    <mxGeometry relative="1" as="geometry">
                        <mxPoint x="1693.5882352941178" y="639.9999999999995" as="targetPoint"/>
                    </mxGeometry>
                </mxCell>
                <mxCell id="160" value="pun_Voter1" style="edgeStyle=none;html=1;exitX=1;exitY=1;exitDx=0;exitDy=0;entryX=0.5;entryY=0;entryDx=0;entryDy=0;" edge="1" parent="1" source="143" target="179">
                    <mxGeometry relative="1" as="geometry">
                        <mxPoint x="1806.5294117647059" y="639.9999999999995" as="targetPoint"/>
                    </mxGeometry>
                </mxCell>
                <mxCell id="143" value="&lt;div&gt;[8]&lt;/div&gt;&lt;div&gt;Voter1_vote = 2&lt;/div&gt;&lt;div&gt;Coercer1_Voter1_gv = 2&lt;/div&gt;&lt;div&gt;Coercer1_Voter1_vote = 0&lt;/div&gt;&lt;div&gt;Coercer1_npun1 = 0&lt;/div&gt;&lt;div&gt;&lt;span style=&quot;background-color: initial;&quot;&gt;Coercer1_pun1 = 0&lt;/span&gt;&lt;/div&gt;" style="shape=ellipse;html=1;dashed=0;whitespace=wrap;aspect=fixed;perimeter=ellipsePerimeter;" vertex="1" parent="1">
                    <mxGeometry x="1670" y="440" width="160" height="160" as="geometry"/>
                </mxCell>
                <mxCell id="162" value="Global" style="text;html=1;strokeColor=none;fillColor=none;align=center;verticalAlign=middle;whiteSpace=wrap;rounded=0;" vertex="1" parent="1">
                    <mxGeometry x="1030" y="80" width="60" height="30" as="geometry"/>
                </mxCell>
                <mxCell id="164" value="&lt;div&gt;[9]&lt;/div&gt;&lt;div&gt;Voter1_vote = 1&lt;/div&gt;&lt;div&gt;Coercer1_Voter1_gv = 1&lt;/div&gt;&lt;div&gt;Coercer1_Voter1_vote = 1&lt;/div&gt;&lt;div&gt;Coercer1_npun1 = 0&lt;/div&gt;&lt;div&gt;&lt;span style=&quot;background-color: initial;&quot;&gt;Coercer1_pun1 = 1&lt;/span&gt;&lt;/div&gt;" style="shape=ellipse;html=1;dashed=0;whitespace=wrap;aspect=fixed;perimeter=ellipsePerimeter;" vertex="1" parent="1">
                    <mxGeometry x="840" y="700" width="140" height="140" as="geometry"/>
                </mxCell>
                <mxCell id="165" value="&lt;div&gt;[10]&lt;/div&gt;&lt;div&gt;Voter1_vote = 1&lt;/div&gt;&lt;div&gt;Coercer1_Voter1_gv = 1&lt;/div&gt;&lt;div&gt;Coercer1_Voter1_vote = 1&lt;/div&gt;&lt;div&gt;Coercer1_npun1 = 1&lt;/div&gt;&lt;div&gt;&lt;span style=&quot;background-color: initial;&quot;&gt;Coercer1_pun1 = 0&lt;/span&gt;&lt;/div&gt;" style="shape=ellipse;html=1;dashed=0;whitespace=wrap;aspect=fixed;perimeter=ellipsePerimeter;" vertex="1" parent="1">
                    <mxGeometry x="910" y="820" width="140" height="140" as="geometry"/>
                </mxCell>
                <mxCell id="168" value="&lt;div&gt;[11]&lt;/div&gt;&lt;div&gt;Voter1_vote = 1&lt;/div&gt;&lt;div&gt;Coercer1_Voter1_gv = 1&lt;/div&gt;&lt;div&gt;Coercer1_Voter1_vote = 2&lt;/div&gt;&lt;div&gt;Coercer1_npun1 = 1&lt;/div&gt;&lt;div&gt;&lt;span style=&quot;background-color: initial;&quot;&gt;Coercer1_pun1 = 0&lt;/span&gt;&lt;/div&gt;" style="shape=ellipse;html=1;dashed=0;whitespace=wrap;aspect=fixed;perimeter=ellipsePerimeter;" vertex="1" parent="1">
                    <mxGeometry x="1000" y="700" width="140" height="140" as="geometry"/>
                </mxCell>
                <mxCell id="169" value="&lt;div&gt;[12]&lt;/div&gt;&lt;div&gt;Voter1_vote = 1&lt;/div&gt;&lt;div&gt;Coercer1_Voter1_gv = 1&lt;/div&gt;&lt;div&gt;Coercer1_Voter1_vote = 2&lt;/div&gt;&lt;div&gt;Coercer1_npun1 = 0&lt;/div&gt;&lt;div&gt;&lt;span style=&quot;background-color: initial;&quot;&gt;Coercer1_pun1 = 1&lt;/span&gt;&lt;/div&gt;" style="shape=ellipse;html=1;dashed=0;whitespace=wrap;aspect=fixed;perimeter=ellipsePerimeter;" vertex="1" parent="1">
                    <mxGeometry x="1070" y="820" width="140" height="140" as="geometry"/>
                </mxCell>
                <mxCell id="170" value="&lt;div&gt;[13]&lt;/div&gt;&lt;div&gt;Voter1_vote = 1&lt;/div&gt;&lt;div&gt;Coercer1_Voter1_gv = 2&lt;/div&gt;&lt;div&gt;Coercer1_Voter1_vote = 0&lt;/div&gt;&lt;div&gt;Coercer1_npun1 = 1&lt;/div&gt;&lt;div&gt;&lt;span style=&quot;background-color: initial;&quot;&gt;Coercer1_pun1 = 0&lt;/span&gt;&lt;/div&gt;" style="shape=ellipse;html=1;dashed=0;whitespace=wrap;aspect=fixed;perimeter=ellipsePerimeter;" vertex="1" parent="1">
                    <mxGeometry x="1160" y="700" width="140" height="140" as="geometry"/>
                </mxCell>
                <mxCell id="171" value="&lt;div&gt;[14]&lt;/div&gt;&lt;div&gt;Voter1_vote = 1&lt;/div&gt;&lt;div&gt;Coercer1_Voter1_gv = 2&lt;/div&gt;&lt;div&gt;Coercer1_Voter1_vote = 0&lt;/div&gt;&lt;div&gt;Coercer1_npun1 = 0&lt;/div&gt;&lt;div&gt;&lt;span style=&quot;background-color: initial;&quot;&gt;Coercer1_pun1 = 1&lt;/span&gt;&lt;/div&gt;" style="shape=ellipse;html=1;dashed=0;whitespace=wrap;aspect=fixed;perimeter=ellipsePerimeter;" vertex="1" parent="1">
                    <mxGeometry x="1230" y="820" width="140" height="140" as="geometry"/>
                </mxCell>
                <mxCell id="172" value="&lt;div&gt;[15]&lt;/div&gt;&lt;div&gt;Voter1_vote = 2&lt;/div&gt;&lt;div&gt;Coercer1_Voter1_gv = 1&lt;/div&gt;&lt;div&gt;Coercer1_Voter1_vote = 1&lt;/div&gt;&lt;div&gt;Coercer1_npun1 = 1&lt;/div&gt;&lt;div&gt;&lt;span style=&quot;background-color: initial;&quot;&gt;Coercer1_pun1 = 0&lt;/span&gt;&lt;/div&gt;" style="shape=ellipse;html=1;dashed=0;whitespace=wrap;aspect=fixed;perimeter=ellipsePerimeter;" vertex="1" parent="1">
                    <mxGeometry x="1320" y="700" width="140" height="140" as="geometry"/>
                </mxCell>
                <mxCell id="173" value="&lt;div&gt;[16]&lt;/div&gt;&lt;div&gt;Voter1_vote = 2&lt;/div&gt;&lt;div&gt;Coercer1_Voter1_gv = 1&lt;/div&gt;&lt;div&gt;Coercer1_Voter1_vote = 1&lt;/div&gt;&lt;div&gt;Coercer1_npun1 = 0&lt;/div&gt;&lt;div&gt;&lt;span style=&quot;background-color: initial;&quot;&gt;Coercer1_pun1 = 1&lt;/span&gt;&lt;/div&gt;" style="shape=ellipse;html=1;dashed=0;whitespace=wrap;aspect=fixed;perimeter=ellipsePerimeter;" vertex="1" parent="1">
                    <mxGeometry x="1390" y="820" width="140" height="140" as="geometry"/>
                </mxCell>
                <mxCell id="176" value="&lt;div&gt;[17]&lt;/div&gt;&lt;div&gt;Voter1_vote = 2&lt;/div&gt;&lt;div&gt;Coercer1_Voter1_gv = 1&lt;/div&gt;&lt;div&gt;Coercer1_Voter1_vote = 2&lt;/div&gt;&lt;div&gt;Coercer1_npun1 = 1&lt;/div&gt;&lt;div&gt;&lt;span style=&quot;background-color: initial;&quot;&gt;Coercer1_pun1 = 0&lt;/span&gt;&lt;/div&gt;" style="shape=ellipse;html=1;dashed=0;whitespace=wrap;aspect=fixed;perimeter=ellipsePerimeter;" vertex="1" parent="1">
                    <mxGeometry x="1480" y="700" width="140" height="140" as="geometry"/>
                </mxCell>
                <mxCell id="177" value="&lt;div&gt;[18]&lt;/div&gt;&lt;div&gt;Voter1_vote = 2&lt;/div&gt;&lt;div&gt;Coercer1_Voter1_gv = 1&lt;/div&gt;&lt;div&gt;Coercer1_Voter1_vote = 2&lt;/div&gt;&lt;div&gt;Coercer1_npun1 = 0&lt;/div&gt;&lt;div&gt;&lt;span style=&quot;background-color: initial;&quot;&gt;Coercer1_pun1 = 1&lt;/span&gt;&lt;/div&gt;" style="shape=ellipse;html=1;dashed=0;whitespace=wrap;aspect=fixed;perimeter=ellipsePerimeter;" vertex="1" parent="1">
                    <mxGeometry x="1550" y="820" width="140" height="140" as="geometry"/>
                </mxCell>
                <mxCell id="178" value="&lt;div&gt;[19]&lt;/div&gt;&lt;div&gt;Voter1_vote = 2&lt;/div&gt;&lt;div&gt;Coercer1_Voter1_gv = 2&lt;/div&gt;&lt;div&gt;Coercer1_Voter1_vote = 0&lt;/div&gt;&lt;div&gt;Coercer1_npun1 = 1&lt;/div&gt;&lt;div&gt;&lt;span style=&quot;background-color: initial;&quot;&gt;Coercer1_pun1 = 0&lt;/span&gt;&lt;/div&gt;" style="shape=ellipse;html=1;dashed=0;whitespace=wrap;aspect=fixed;perimeter=ellipsePerimeter;" vertex="1" parent="1">
                    <mxGeometry x="1630" y="700" width="140" height="140" as="geometry"/>
                </mxCell>
                <mxCell id="179" value="&lt;div&gt;[20]&lt;/div&gt;&lt;div&gt;Voter1_vote = 2&lt;/div&gt;&lt;div&gt;Coercer1_Voter1_gv = 2&lt;/div&gt;&lt;div&gt;Coercer1_Voter1_vote = 0&lt;/div&gt;&lt;div&gt;Coercer1_npun1 = 0&lt;/div&gt;&lt;div&gt;&lt;span style=&quot;background-color: initial;&quot;&gt;Coercer1_pun1 = 1&lt;/span&gt;&lt;/div&gt;" style="shape=ellipse;html=1;dashed=0;whitespace=wrap;aspect=fixed;perimeter=ellipsePerimeter;" vertex="1" parent="1">
                    <mxGeometry x="1700" y="820" width="140" height="140" as="geometry"/>
                </mxCell>
            </root>
        </mxGraphModel>
    </diagram>
</mxfile>